<?xml version="1.0" encoding="utf-8"?>
<!-- Generator: Adobe Illustrator 19.1.0, SVG Export Plug-In . SVG Version: 6.00 Build 0)  -->
<svg version="1.1" id="Layer_1" xmlns="http://www.w3.org/2000/svg" xmlns:xlink="http://www.w3.org/1999/xlink" x="0px" y="0px"
	 width="1000px" height="1000px" viewBox="0 0 1000 1000" style="enable-background:new 0 0 1000 1000;" xml:space="preserve">
<style type="text/css">
	.st0{fill:#FFFFFF;}
	.st1{fill:#FF0000;}
</style>
<g>
	<path class="st0" d="M701.1,950.1c-50.4,21.3-60.2,0.5-60.2,0.5L508,748.3L375.2,950.6c0,0-9.9,20.8-60.2-0.6
		c-61.2-25.9-53.7-62.7-53.7-62.7S308.2,815,368,726h125.4h29.3H648c59.8,89,106.7,161.4,106.7,161.4S762.3,924.2,701.1,950.1z
		 M855.3,131.8c-78.8-53.7-117.5-34.7-155.1-24.9c-37.7,9.8-72,53.1-92.5,83.1c-7.1,10.4-52.2,78.6-108,162.9
		C444,268.6,398.9,200.5,391.8,190c-20.4-30.1-54.8-73.3-92.5-83.1c-37.6-9.9-76.3-28.8-155.1,24.9
		c-151,102.8,19.3,299.9,19.3,299.9s39.7-1.6,59.7-16c18.7-13.6,30.7-26.1,38.2-35.6c7-8.9,6.6-21.5-1.1-29.9
		c-25.5-27.9-73.3-98.5-34.8-122.4c23.2-14.4,46.1,11.2,46.1,11.2L412.6,454h20.1h134h20.1l140.9-214.9c0,0,22.9-25.7,46.1-11.3
		c38.5,23.9-9.3,94.5-34.8,122.4c-7.7,8.4-8.1,21-1.1,29.9c7.5,9.5,19.5,22,38.2,35.6c20,14.4,59.7,16,59.7,16
		S1006.2,234.6,855.3,131.8z"/>
	<path class="st1" d="M865,702H127v24h234.1c-26.4,39-52.6,78.8-79,118.4c-7.4,11.7-28,34.9-27.4,46.4c0.6,11.5,10.6,30.3,24.6,42
		c23.6,19.8,61.1,41.3,86,32.2c13.5-5,21-24.7,27.1-34.5c20.8-31,41.5-61.6,62.4-92.7c17.7-26.7,35.5-53.6,53.2-80.2
		c17.7,26.6,35.5,53.4,53.2,80.2c20.8,31,41.5,61.8,62.4,92.8c6.2,9.7,13.6,29.4,27.1,34.3c24.9,9.1,62.4-12.4,86-32.3
		c14-11.7,24-30.6,24.6-42.1c0.6-11.5-20-34.6-27.4-46.3c-26.4-39.5-52.6-79.4-79-118.4h210V702z M361.5,950.3
		c-20.9,10.9-86.4-21.7-91.8-57.8c-1.6-10.9,19.1-33.8,26.2-44.9c3.7-5.6,14-24.8,19.1-27.5c-2,20,19.3,58.9,43.6,77.6
		c9.3,7.2,19.7,11.9,28.3,18.3C382.3,923.6,370.8,945.4,361.5,950.3z M467.9,791.5c-10.4,16.2-20.8,32.2-31.2,48.4
		c-4,6.1-8.1,12.2-12.3,18.3c-33.5-22.7-56.7-38.9-66.4-80.3c-1-6.2-2.2-12-3.2-18.2c7.6-11.3,15.2-23.7,22.8-33.7h53.7
		c13.5,18,32.1,34.9,50.1,44.1C477.1,777.3,472.4,784.2,467.9,791.5z M701.1,820.1c5.1,2.7,15.4,21.9,19.1,27.5
		c7.1,11.2,27.8,34.1,26.2,44.9c-5.4,36.1-70.9,68.7-91.8,57.8c-9.4-4.8-20.8-26.6-25.3-34.3c8.5-6.4,18.9-11.1,28.3-18.3
		C681.8,878.9,703.1,840.1,701.1,820.1z M661.2,759.7c-1,6.2-2.2,12.2-3.2,18.4c-9.6,41.4-32.8,57.5-66.4,80.1
		c-4.2-6.1-8.3-12.3-12.3-18.4c-10.4-16.2-20.8-32.3-31.2-48.5c-4.5-7.2-9.1-14-13.6-21.2c18.1-9.2,36.6-26.1,50.1-44.1h53.7
		C645.9,736,653.5,748.4,661.2,759.7z M738.4,336.5c-4.7,6.9-9.5,13.8-14.2,20.8c-3.1,11.2,8,29.3,21.1,40.4
		c25.9,21.9,53.9,43.4,81.7,41.9c17.1-0.9,41.4-47.1,50.5-61.6c34-53.9,59-109.5,41.6-167.3c-3.7-12-9.6-24.2-16.4-36.5
		c-3.9-5.7-7.9-11.4-11.8-17.1c-69.6-84.4-192.1-96.8-265.4,0C582.7,213.4,545.7,271.7,509,330c-3.1,4.6-6.1,9.2-9.2,13.9
		c-3.1-4.6-6.1-9.3-9.2-13.9c-36.7-58.3-73.7-116.6-116.4-172.9c-73.3-96.7-195.8-84.3-265.4,0c-3.9,5.7-7.9,11.4-11.8,17.1
		c-6.8,12.3-12.7,24.5-16.4,36.5C63,268.5,88.1,324.1,122,378c9.1,14.6,33.4,60.8,50.5,61.6c27.8,1.5,55.7-20,81.7-41.9
		c13.1-11.1,24.2-29.3,21.1-40.4c-4.8-7-9.6-13.9-14.2-20.8c-14-20.7-41.1-51.4-45.7-72.8c-5.4-25.5,20.8-40,41.8-28
		c12.4,6.9,21.7,27.5,27.7,36.9c19.8,30,39.7,60.1,59.6,90.1c19.9,30.1,39.8,60.4,59.8,90.4H127v24h738v-24H595.3
		c19.9-30,39.9-60.3,59.8-90.4c19.8-30,39.7-60.1,59.6-90.1c6.1-9.4,15.3-30,27.7-36.9c21-12,47.1,2.6,41.8,28
		C779.6,285.1,752.4,315.8,738.4,336.5z M223.1,305.1c9.9,15.1,19.9,30.3,29.8,45.4c2.9,4.4,9.8,9.8,9.5,14.7
		c-0.6,9.1-12.6,22.2-21.2,30.4c-17.1,16.5-48.4,34.4-66.7,30c-9.6-2.4-13.7-12.6-18.1-19.4c-11.8-17.7-23.3-35.5-35.1-53.2
		C155.4,345.3,191.1,337.7,223.1,305.1z M206.7,238.8c-1.4,5.1-3.1,10.3-4.5,15.4c-34.5,13.5-77.9,20.9-114.1,12.2
		c-4.7-22.1,5.8-58.4,17.5-82.1c5.2-8,10.4-15.9,15.6-23.9c5.7-5.7,11.5-11.5,17.3-17.1c4.6-0.3,10.1,3.1,15,4.9
		c31.7,12.1,61.3,51.5,62.9,77.6C216.4,229.1,208.7,234.5,206.7,238.8z M499.8,379.4c5.4,28,27.1,54.6,52.2,73.6H447.6
		C472.6,434,494.4,407.3,499.8,379.4z M312.7,254.6c-4.9,3.5-9.9,7.1-14.9,10.5c-0.2,0.3-0.4,0.5-0.7,0.8
		c-16.7-28.9-27.2-45.1-59.9-49c26-30.5,17.9-61.4,8.3-89.3c-2.5-7.3-5.1-16.6-10.5-23.5c5.9-1.9,13.2,0.1,19.5,0.6
		c24.5,2.2,45.3,9.3,71.6,25.2c7.1,4.4,26.4,21.2,28.9,26.8c-0.1,3.7-0.2,7.4-0.2,11.1C353.6,194.6,344.5,231,312.7,254.6z
		 M331.6,319.2c9.1-7,20.2-11.4,30-18.8c23.6-17.8,43.5-56.5,42-75.7c19.1,28.1,38.2,56,57.3,84.2c-4.6,29.9-19.6,67.2-54.3,87.7
		c-5.3,3-10.9,8.3-16.5,9.2C370.6,376.8,351.1,348,331.6,319.2z M609.4,405.7c-5.6-0.8-11.2-6.1-16.5-9.2
		c-34.6-20.5-49.7-57.9-54.3-87.7c19.1-28.2,38.2-56.1,57.3-84.2c-1.5,19.3,18.4,57.9,42,75.7c9.8,7.4,21,11.9,30,18.8
		C648.4,348,628.9,376.8,609.4,405.7z M762.3,216.9c-32.7,4-43.2,20.1-59.9,49c-0.2-0.3-0.4-0.5-0.7-0.8c-5-3.4-10-7-14.9-10.5
		c-31.8-23.6-40.9-60-42.1-86.9c0-3.7-0.1-7.4-0.2-11.1c2.5-5.6,21.8-22.4,28.9-26.8c26.3-15.9,47.1-23,71.6-25.2
		c6.3-0.5,13.6-2.5,19.5-0.6c-5.3,6.9-8,16.2-10.5,23.5C744.4,155.5,736.3,186.4,762.3,216.9z M783.1,225.8
		c1.6-26,31.2-65.5,62.9-77.6c4.9-1.8,10.4-5.2,15-4.9c5.9,5.6,11.6,11.4,17.3,17.1c5.2,8,10.4,15.9,15.6,23.9
		c11.6,23.6,22.2,59.9,17.5,82.1c-36.2,8.8-79.7,1.3-114.1-12.2c-1.4-5.1-3.1-10.3-4.5-15.4C790.8,234.5,783.1,229.1,783.1,225.8z
		 M878.2,352.9c-11.8,17.7-23.3,35.5-35.1,53.2c-4.3,6.9-8.4,17-18.1,19.4c-18.3,4.4-49.6-13.5-66.7-30
		c-8.6-8.2-20.6-21.3-21.2-30.4c-0.3-4.8,6.6-10.2,9.5-14.7c10-15.1,19.9-30.2,29.8-45.4C808.4,337.7,844.1,345.3,878.2,352.9z"/>
</g>
</svg>
